HIERARCHY
ROOT hip
{
	OFFSET 0.000000 0.000000 0.000000 
	CHANNELS 6 Xposition Yposition Zposition Xrotation Zrotation Yrotation
	JOINT abdomen
	{
		OFFSET 0.000000 3.402643 0.000000 
		CHANNELS 3 Xrotation Zrotation Yrotation
		JOINT chest
		{
			OFFSET 0.000000 8.438565 -0.680529 
			CHANNELS 3 Xrotation Zrotation Yrotation
			JOINT neck
			{
				OFFSET 0.000000 10.207942 -0.272212 
				CHANNELS 3 Xrotation Zrotation Yrotation
				JOINT head
				{
					OFFSET 0.000000 3.130431 0.000000 
					CHANNELS 3 Xrotation Zrotation Yrotation
					End Site
					{
						OFFSET 0.000000 3.130435 0.000000 
					}
				}
			}
			JOINT lCollar
			{
				OFFSET 3.470700 6.669187 -0.816635 
				CHANNELS 3 Yrotation Zrotation Xrotation
				JOINT lShldr
				{
					OFFSET 3.198488 0.000000 0.000000 
					CHANNELS 3 Zrotation Yrotation Xrotation
					JOINT lForeArm
					{
						OFFSET 10.139888 0.000000 0.000000 
						CHANNELS 3 Yrotation Zrotation Xrotation
						JOINT lHand
						{
							OFFSET 8.370511 0.000000 0.000000 
							CHANNELS 3 Zrotation Yrotation Xrotation
							End Site
							{
								OFFSET 4.083176 0.000000 0.000000 
							}
						}
					}
				}
			}
			JOINT rCollar
			{
				OFFSET -3.470700 6.669187 -0.816635 
				CHANNELS 3 Yrotation Zrotation Xrotation
				JOINT rShldr
				{
					OFFSET -3.198488 0.000000 0.000000 
					CHANNELS 3 Zrotation Yrotation Xrotation
					JOINT rForeArm
					{
						OFFSET -10.139888 0.000000 0.000000 
						CHANNELS 3 Yrotation Zrotation Xrotation
						JOINT rHand
						{
							OFFSET -8.370511 0.000000 0.000000 
							CHANNELS 3 Zrotation Yrotation Xrotation
							End Site
							{
								OFFSET -4.083176 0.000000 0.000000 
							}
						}
					}
				}
			}
		}
	}
	JOINT lThigh
	{
		OFFSET 5.308129 -1.633274 1.361059 
		CHANNELS 3 Xrotation Zrotation Yrotation
		JOINT lShin
		{
			OFFSET -2.041588 -20.007561 0.000000 
			CHANNELS 3 Xrotation Zrotation Yrotation
			JOINT lFoot
			{
				OFFSET 0.000000 -19.190928 -1.224953 
				CHANNELS 3 Xrotation Yrotation Zrotation
				End Site
				{
					OFFSET 0.000000 -2.449906 4.627600 
				}
			}
		}
	}
	JOINT rThigh
	{
		OFFSET -5.308129 -1.633274 1.361059 
		CHANNELS 3 Xrotation Zrotation Yrotation
		JOINT rShin
		{
			OFFSET 2.041588 -20.007561 0.000000 
			CHANNELS 3 Xrotation Zrotation Yrotation
			JOINT rFoot
			{
				OFFSET 0.000000 -19.190928 -1.224953 
				CHANNELS 3 Xrotation Yrotation Zrotation
				End Site
				{
					OFFSET 0.000000 -2.449906 4.627600 
				}
			}
		}
	}
}
MOTION
Frames: 11
Frame Time: 0.016667
2.241948 51.622429 1.286428 -11.247226 -17.784613 -55.325371 32.781380 7.242699 4.720997 3.843766 1.034844 2.197565 9.515573 -0.981886 -0.157752 20.808098 -14.322947 32.789871 -14.177961 -11.985870 -0.634271 -31.115795 4.449143 -8.052322 -118.045502 5.000000 13.547184 -19.422684 -12.229117 14.717142 8.864209 4.067861 -0.218152 81.437950 43.531685 45.000000 121.835648 -5.000000 8.400491 27.385015 -22.318928 6.538427 6.266848 22.715109 1.906939 10.725579 -5.767685 -1.331620 7.328403 5.610725 -14.493028 28.378263 -11.064595 -6.080266 20.925858 1.872587 0.733798 -22.468630 -24.348757 9.973880 
2.248338 51.625626 1.294429 -11.229935 -17.810034 -55.360291 32.792015 7.294704 4.734682 3.872474 1.025090 2.187802 9.476508 -0.981886 -0.157752 20.769733 -14.323947 32.728977 -14.168642 -12.024880 -0.636281 -31.111994 4.492038 -8.076565 -118.008636 5.000000 13.539810 -19.454258 -12.412621 14.545382 8.815495 4.097126 -0.219666 81.353699 43.498486 45.000000 121.576599 -5.000000 8.330263 27.389883 -20.947086 7.038640 6.306249 22.736567 1.884774 10.708612 -5.778726 -1.330690 7.344305 5.600498 -14.455573 28.397142 -11.064501 -6.020644 20.895163 1.891825 0.725577 -22.449440 -24.374622 10.041591 
2.254726 51.627857 1.300496 -11.235015 -17.839376 -55.383743 32.821636 7.318786 4.725536 3.882414 1.025086 2.197567 9.456762 -0.961115 -0.151018 20.701462 -14.330078 32.689178 -14.176609 -12.046775 -0.628026 -31.159084 4.544656 -8.115427 -117.997940 5.000000 13.510779 -19.459885 -12.635710 14.326153 8.776508 4.116639 -0.220676 81.290741 43.490784 45.000000 121.275093 -5.000000 8.249848 27.523102 -19.368299 7.139638 6.336155 22.709311 1.865105 10.703442 -5.768591 -1.310509 7.347390 5.655464 -14.407958 28.417139 -11.093941 -6.010797 20.883823 1.901477 0.746062 -22.453114 -24.384138 10.020515 
2.261116 51.629459 1.305275 -11.268043 -17.863140 -55.407211 32.859417 7.317212 4.694686 3.883182 1.034836 2.236625 9.446736 -0.921031 -0.147202 20.639145 -14.316697 32.665657 -14.196140 -12.046775 -0.628026 -31.226799 4.602743 -8.160956 -118.008781 5.000000 13.468848 -19.455555 -12.872058 14.071299 8.737484 4.126398 -0.221182 81.226974 43.513172 45.000000 120.934753 -5.000000 8.170477 27.721617 -17.644978 6.982439 6.405603 22.700647 1.882790 10.691102 -5.769904 -1.328273 7.291486 5.672534 -14.351365 28.433575 -11.131852 -5.994203 20.883749 1.902338 0.746201 -22.435383 -24.356977 10.042430 
2.267506 51.631058 1.309736 -11.287095 -17.877369 -55.436184 32.877228 7.317585 4.662724 3.883780 1.044589 2.246387 9.436747 -0.890604 -0.141927 20.578686 -14.310005 32.653900 -14.205906 -12.046775 -0.628026 -31.283657 4.653841 -8.200809 -118.008850 5.000000 13.423073 -19.478731 -13.113983 13.815050 8.717293 4.137634 -0.212059 81.164177 43.526424 45.000000 120.655113 -5.000000 8.106329 27.911222 -16.082636 6.769065 6.435181 22.694052 1.855802 10.686795 -5.777480 -1.338627 7.229218 5.692091 -14.325094 28.464077 -11.161473 -5.984647 20.873249 1.902263 0.765094 -22.425014 -24.329229 10.027918 
2.273892 51.632652 1.312935 -11.260249 -17.870979 -55.464645 32.839272 7.320981 4.685048 3.913324 1.054352 2.226857 9.436747 -0.890604 -0.141927 20.587103 -14.292034 32.660839 -14.206236 -12.076031 -0.629534 -31.310621 4.690619 -8.250010 -117.985970 5.000000 13.360277 -19.596350 -13.335201 13.543294 8.746736 4.176643 -0.214077 81.069054 43.573952 45.000000 120.616974 -5.000000 8.096411 28.043419 -15.191973 6.313159 6.423590 22.667112 1.841581 10.680300 -5.769334 -1.327374 7.247674 5.747421 -14.339122 28.428946 -11.169358 -5.977081 20.855492 1.889092 0.742391 -22.443439 -24.300434 10.019403 
2.280281 51.634247 1.316121 -11.241858 -17.859047 -55.493107 32.811260 7.336959 4.701683 3.932676 1.054356 2.187796 9.436769 -0.900260 -0.140467 20.583305 -14.272542 32.679535 -14.206457 -12.095535 -0.630540 -31.337629 4.727355 -8.298439 -117.971558 5.000000 13.301791 -19.712271 -13.557932 13.272947 8.776181 4.215654 -0.216094 80.971992 43.631104 45.000000 120.579575 -5.000000 8.096779 28.160292 -14.291251 5.863231 6.405474 22.663086 1.808158 10.676629 -5.777234 -1.308529 7.261809 5.831084 -14.333787 28.408607 -11.169124 -5.996589 20.838245 1.869882 0.718705 -22.435205 -24.272400 10.017074 
2.284114 51.637123 1.319319 -11.262699 -17.864578 -55.496101 32.828781 7.309541 4.691305 3.942082 1.054365 2.168268 9.436529 -0.860177 -0.136651 20.568428 -14.235094 32.702774 -14.206567 -12.105287 -0.631042 -31.374006 4.772813 -8.331847 -118.033249 5.000000 13.288870 -19.975214 -13.647582 13.291722 8.795862 4.254664 -0.218112 80.951294 43.710598 45.000000 120.624504 -5.000000 8.130448 28.009951 -13.681584 5.571637 6.424012 22.650127 1.759421 10.670217 -5.788725 -1.318224 7.276054 5.893081 -14.325833 28.427561 -11.201143 -5.986083 20.828154 1.873341 0.718722 -22.389120 -24.251534 10.051803 
2.287307 51.640327 1.322518 -11.297491 -17.879625 -55.493610 32.855354 7.285088 4.672968 3.941722 1.054374 2.158506 9.426530 -0.820093 -0.132835 20.546253 -14.199183 32.719082 -14.196802 -12.105288 -0.631042 -31.418884 4.808538 -8.361096 -118.113327 5.000000 13.284982 -20.275606 -13.693351 13.398047 8.815507 4.283922 -0.219625 80.946106 43.804581 45.000000 120.686394 -5.000000 8.172097 27.774197 -13.151146 5.325113 6.453958 22.623037 1.729723 10.669790 -5.788511 -1.337690 7.301297 5.927455 -14.315077 28.474218 -11.220141 -6.014341 20.789085 1.863490 0.734388 -22.378616 -24.272243 10.075199 
2.291142 51.644161 1.325079 -11.302727 -17.901752 -55.502617 32.863297 7.282626 4.651849 3.951072 1.044616 2.158507 9.416411 -0.778549 -0.119364 20.524643 -14.158102 32.711903 -14.198944 -12.112644 -0.640802 -31.443169 4.838799 -8.382894 -118.207596 5.000000 13.302365 -20.585848 -13.686216 13.528811 8.835152 4.313180 -0.221138 80.957710 43.882114 45.000000 120.748978 -5.000000 8.200844 27.501785 -12.703113 5.069123 6.493998 22.634249 1.696099 10.642406 -5.818771 -1.337321 7.268990 5.953935 -14.307086 28.498772 -11.209222 -5.992253 20.750353 1.853882 0.740374 -22.383677 -24.301203 10.065450 
2.295936 51.648945 1.326671 -11.267314 -17.925409 -55.526119 32.864410 7.337931 4.646262 3.980547 1.044612 2.178036 9.386906 -0.738466 -0.115547 20.489460 -14.103601 32.681278 -14.189516 -12.141901 -0.644363 -31.445818 4.850247 -8.402123 -118.336143 5.000000 13.355274 -20.907606 -13.572222 13.720148 8.864450 4.313179 -0.221138 80.968925 43.989082 45.000000 120.827682 -5.000000 8.203848 27.149691 -12.418011 4.822738 6.521660 22.668692 1.674816 10.575491 -5.838875 -1.342437 7.330791 6.063288 -14.253453 28.513111 -11.190923 -5.905475 20.708178 1.892565 0.734729 -22.375637 -24.278511 10.082130 
